<svg width="274" height="29" viewBox="0 0 274 29" fill="none" xmlns="http://www.w3.org/2000/svg">
<path d="M18.16 23L18.132 11.24L12.364 20.928H10.32L4.58 11.492V23H0.324V3.4H4.076L11.412 15.58L18.636 3.4H22.36L22.416 23H18.16ZM41.7102 7.936L34.9062 23.924C34.2155 25.66 33.3569 26.8827 32.3302 27.592C31.3222 28.3013 30.0995 28.656 28.6622 28.656C27.8782 28.656 27.1035 28.5347 26.3382 28.292C25.5729 28.0493 24.9475 27.7133 24.4622 27.284L26.0582 24.176C26.3942 24.4747 26.7769 24.708 27.2062 24.876C27.6542 25.044 28.0929 25.128 28.5222 25.128C29.1195 25.128 29.6049 24.9787 29.9782 24.68C30.3515 24.4 30.6875 23.924 30.9862 23.252L31.0422 23.112L24.5182 7.936H29.0262L33.2542 18.156L37.5102 7.936H41.7102ZM50.1312 23.336C48.5819 23.336 47.0792 23.1307 45.6232 22.72C44.1859 22.2907 43.0285 21.74 42.1512 21.068L43.6912 17.652C44.5312 18.268 45.5299 18.7627 46.6872 19.136C47.8445 19.5093 49.0019 19.696 50.1592 19.696C51.4472 19.696 52.3992 19.5093 53.0152 19.136C53.6312 18.744 53.9392 18.2307 53.9392 17.596C53.9392 17.1293 53.7525 16.7467 53.3792 16.448C53.0245 16.1307 52.5579 15.8787 51.9792 15.692C51.4192 15.5053 50.6539 15.3 49.6832 15.076C48.1899 14.7213 46.9672 14.3667 46.0152 14.012C45.0632 13.6573 44.2419 13.088 43.5512 12.304C42.8792 11.52 42.5432 10.4747 42.5432 9.168C42.5432 8.02933 42.8512 7.00267 43.4672 6.088C44.0832 5.15467 45.0072 4.41733 46.2392 3.876C47.4899 3.33467 49.0112 3.064 50.8032 3.064C52.0539 3.064 53.2765 3.21333 54.4712 3.512C55.6659 3.81067 56.7112 4.24 57.6072 4.8L56.2072 8.244C54.3965 7.21733 52.5859 6.704 50.7752 6.704C49.5059 6.704 48.5632 6.90933 47.9472 7.32C47.3499 7.73067 47.0512 8.272 47.0512 8.944C47.0512 9.616 47.3965 10.12 48.0872 10.456C48.7965 10.7733 49.8699 11.0907 51.3072 11.408C52.8005 11.7627 54.0232 12.1173 54.9752 12.472C55.9272 12.8267 56.7392 13.3867 57.4112 14.152C58.1019 14.9173 58.4472 15.9533 58.4472 17.26C58.4472 18.38 58.1299 19.4067 57.4952 20.34C56.8792 21.2547 55.9459 21.9827 54.6952 22.524C53.4445 23.0653 51.9232 23.336 50.1312 23.336ZM75.9947 15.524C75.9947 15.58 75.9667 15.972 75.9107 16.7H64.5147C64.72 17.6333 65.2053 18.3707 65.9707 18.912C66.736 19.4533 67.688 19.724 68.8267 19.724C69.6107 19.724 70.3013 19.612 70.8987 19.388C71.5147 19.1453 72.084 18.772 72.6067 18.268L74.9307 20.788C73.512 22.412 71.44 23.224 68.7147 23.224C67.016 23.224 65.5133 22.8973 64.2067 22.244C62.9 21.572 61.892 20.648 61.1827 19.472C60.4733 18.296 60.1187 16.9613 60.1187 15.468C60.1187 13.9933 60.464 12.668 61.1547 11.492C61.864 10.2973 62.8253 9.37333 64.0387 8.72C65.2707 8.048 66.6427 7.712 68.1547 7.712C69.6293 7.712 70.964 8.02933 72.1587 8.664C73.3533 9.29867 74.2867 10.2133 74.9587 11.408C75.6493 12.584 75.9947 13.956 75.9947 15.524ZM68.1827 11.016C67.1933 11.016 66.3627 11.296 65.6907 11.856C65.0187 12.416 64.608 13.1813 64.4587 14.152H71.8787C71.7293 13.2 71.3187 12.444 70.6467 11.884C69.9747 11.3053 69.1533 11.016 68.1827 11.016ZM86.1827 23.224C84.5774 23.224 83.1307 22.8973 81.8427 22.244C80.5734 21.572 79.5747 20.648 78.8467 19.472C78.1374 18.296 77.7827 16.9613 77.7827 15.468C77.7827 13.9747 78.1374 12.64 78.8467 11.464C79.5747 10.288 80.5734 9.37333 81.8427 8.72C83.1307 8.048 84.5774 7.712 86.1827 7.712C87.7694 7.712 89.1507 8.048 90.3267 8.72C91.5214 9.37333 92.3894 10.316 92.9307 11.548L89.5427 13.368C88.7587 11.9867 87.6294 11.296 86.1547 11.296C85.0161 11.296 84.0734 11.6693 83.3267 12.416C82.5801 13.1627 82.2067 14.18 82.2067 15.468C82.2067 16.756 82.5801 17.7733 83.3267 18.52C84.0734 19.2667 85.0161 19.64 86.1547 19.64C87.6481 19.64 88.7774 18.9493 89.5427 17.568L92.9307 19.416C92.3894 20.6107 91.5214 21.544 90.3267 22.216C89.1507 22.888 87.7694 23.224 86.1827 23.224Z" fill="white"/>
<path d="M103.683 3.4H108.219V23H103.683V3.4ZM121.719 7.712C123.586 7.712 125.088 8.272 126.227 9.392C127.384 10.512 127.963 12.1733 127.963 14.376V23H123.595V15.048C123.595 13.8533 123.334 12.9667 122.811 12.388C122.288 11.7907 121.532 11.492 120.543 11.492C119.442 11.492 118.564 11.8373 117.911 12.528C117.258 13.2 116.931 14.208 116.931 15.552V23H112.563V7.936H116.735V9.7C117.314 9.06533 118.032 8.58 118.891 8.244C119.75 7.88933 120.692 7.712 121.719 7.712ZM136.71 8.272H140.574V11.632H136.822V23H132.454V11.632H130.13V8.272H132.454V7.6C132.454 5.88267 132.958 4.52 133.966 3.512C134.993 2.504 136.43 2 138.278 2C138.932 2 139.548 2.07467 140.126 2.224C140.724 2.35467 141.218 2.55067 141.61 2.812L140.462 5.976C139.958 5.62133 139.37 5.444 138.698 5.444C137.373 5.444 136.71 6.172 136.71 7.628V8.272ZM149.727 23.224C148.14 23.224 146.712 22.8973 145.443 22.244C144.192 21.572 143.212 20.648 142.503 19.472C141.794 18.296 141.439 16.9613 141.439 15.468C141.439 13.9747 141.794 12.64 142.503 11.464C143.212 10.288 144.192 9.37333 145.443 8.72C146.712 8.048 148.14 7.712 149.727 7.712C151.314 7.712 152.732 8.048 153.983 8.72C155.234 9.37333 156.214 10.288 156.923 11.464C157.632 12.64 157.987 13.9747 157.987 15.468C157.987 16.9613 157.632 18.296 156.923 19.472C156.214 20.648 155.234 21.572 153.983 22.244C152.732 22.8973 151.314 23.224 149.727 23.224ZM149.727 19.64C150.847 19.64 151.762 19.2667 152.471 18.52C153.199 17.7547 153.563 16.7373 153.563 15.468C153.563 14.1987 153.199 13.1907 152.471 12.444C151.762 11.6787 150.847 11.296 149.727 11.296C148.607 11.296 147.683 11.6787 146.955 12.444C146.227 13.1907 145.863 14.1987 145.863 15.468C145.863 16.7373 146.227 17.7547 146.955 18.52C147.683 19.2667 148.607 19.64 149.727 19.64ZM165.079 9.924C165.601 9.196 166.301 8.64533 167.179 8.272C168.075 7.89867 169.101 7.712 170.259 7.712V11.744C169.773 11.7067 169.447 11.688 169.279 11.688C168.028 11.688 167.048 12.0427 166.339 12.752C165.629 13.4427 165.275 14.488 165.275 15.888V23H160.907V7.936H165.079V9.924ZM192.148 7.712C194.033 7.712 195.527 8.272 196.628 9.392C197.748 10.4933 198.308 12.1547 198.308 14.376V23H193.94V15.048C193.94 13.8533 193.688 12.9667 193.184 12.388C192.699 11.7907 191.999 11.492 191.084 11.492C190.057 11.492 189.245 11.828 188.648 12.5C188.051 13.1533 187.752 14.1333 187.752 15.44V23H183.384V15.048C183.384 12.6773 182.432 11.492 180.528 11.492C179.52 11.492 178.717 11.828 178.12 12.5C177.523 13.1533 177.224 14.1333 177.224 15.44V23H172.856V7.936H177.028V9.672C177.588 9.03733 178.269 8.552 179.072 8.216C179.893 7.88 180.789 7.712 181.76 7.712C182.824 7.712 183.785 7.92667 184.644 8.356C185.503 8.76667 186.193 9.37333 186.716 10.176C187.332 9.392 188.107 8.78533 189.04 8.356C189.992 7.92667 191.028 7.712 192.148 7.712ZM208.299 7.712C210.632 7.712 212.424 8.272 213.675 9.392C214.926 10.4933 215.551 12.164 215.551 14.404V23H211.463V21.124C210.642 22.524 209.111 23.224 206.871 23.224C205.714 23.224 204.706 23.028 203.847 22.636C203.007 22.244 202.363 21.7027 201.915 21.012C201.467 20.3213 201.243 19.5373 201.243 18.66C201.243 17.26 201.766 16.1587 202.811 15.356C203.875 14.5533 205.508 14.152 207.711 14.152H211.183C211.183 13.2 210.894 12.472 210.315 11.968C209.736 11.4453 208.868 11.184 207.711 11.184C206.908 11.184 206.115 11.3147 205.331 11.576C204.566 11.8187 203.912 12.1547 203.371 12.584L201.803 9.532C202.624 8.95333 203.604 8.50533 204.743 8.188C205.9 7.87067 207.086 7.712 208.299 7.712ZM207.963 20.284C208.71 20.284 209.372 20.116 209.951 19.78C210.53 19.4253 210.94 18.912 211.183 18.24V16.7H208.187C206.395 16.7 205.499 17.288 205.499 18.464C205.499 19.024 205.714 19.472 206.143 19.808C206.591 20.1253 207.198 20.284 207.963 20.284ZM229.22 22.272C228.791 22.5893 228.259 22.832 227.624 23C227.008 23.1493 226.355 23.224 225.664 23.224C223.872 23.224 222.482 22.7667 221.492 21.852C220.522 20.9373 220.036 19.5933 220.036 17.82V11.632H217.712V8.272H220.036V4.604H224.404V8.272H228.156V11.632H224.404V17.764C224.404 18.3987 224.563 18.8933 224.88 19.248C225.216 19.584 225.683 19.752 226.28 19.752C226.971 19.752 227.559 19.5653 228.044 19.192L229.22 22.272ZM231.672 7.936H236.04V23H231.672V7.936ZM233.856 5.836C233.054 5.836 232.4 5.60267 231.896 5.136C231.392 4.66933 231.14 4.09067 231.14 3.4C231.14 2.70933 231.392 2.13067 231.896 1.664C232.4 1.19733 233.054 0.963998 233.856 0.963998C234.659 0.963998 235.312 1.188 235.816 1.636C236.32 2.084 236.572 2.644 236.572 3.316C236.572 4.044 236.32 4.65067 235.816 5.136C235.312 5.60267 234.659 5.836 233.856 5.836ZM247.262 23.224C245.675 23.224 244.247 22.8973 242.978 22.244C241.727 21.572 240.747 20.648 240.038 19.472C239.329 18.296 238.974 16.9613 238.974 15.468C238.974 13.9747 239.329 12.64 240.038 11.464C240.747 10.288 241.727 9.37333 242.978 8.72C244.247 8.048 245.675 7.712 247.262 7.712C248.849 7.712 250.267 8.048 251.518 8.72C252.769 9.37333 253.749 10.288 254.458 11.464C255.167 12.64 255.522 13.9747 255.522 15.468C255.522 16.9613 255.167 18.296 254.458 19.472C253.749 20.648 252.769 21.572 251.518 22.244C250.267 22.8973 248.849 23.224 247.262 23.224ZM247.262 19.64C248.382 19.64 249.297 19.2667 250.006 18.52C250.734 17.7547 251.098 16.7373 251.098 15.468C251.098 14.1987 250.734 13.1907 250.006 12.444C249.297 11.6787 248.382 11.296 247.262 11.296C246.142 11.296 245.218 11.6787 244.49 12.444C243.762 13.1907 243.398 14.1987 243.398 15.468C243.398 16.7373 243.762 17.7547 244.49 18.52C245.218 19.2667 246.142 19.64 247.262 19.64ZM267.598 7.712C269.464 7.712 270.967 8.272 272.106 9.392C273.263 10.512 273.842 12.1733 273.842 14.376V23H269.474V15.048C269.474 13.8533 269.212 12.9667 268.69 12.388C268.167 11.7907 267.411 11.492 266.422 11.492C265.32 11.492 264.443 11.8373 263.79 12.528C263.136 13.2 262.81 14.208 262.81 15.552V23H258.442V7.936H262.614V9.7C263.192 9.06533 263.911 8.58 264.77 8.244C265.628 7.88933 266.571 7.712 267.598 7.712Z" fill="#FEB545"/>
</svg>
